<svg xmlns="http://www.w3.org/2000/svg" width="24" height="24" viewBox="0 0 24 24">
  <g fill="none" fill-rule="evenodd">
    <rect width="24" height="24"/>
    <path fill="#1A3BDD" d="M5.97591695,8.87523588 C7.23780662,8.89284194 8.24544805,9.89160257 8.22709662,11.0660913 C8.20572177,12.4358411 6.50058517,12.7268389 6.47815564,14.5322219 C6.44756992,17.0036445 8.65733582,17.2883972 8.62464073,19.3816554 C8.60171902,20.8492017 7.32407946,22.0212987 5.77095744,21.9997064 C4.21783541,21.9780476 2.97739091,20.770805 3.00031262,19.3032587 C3.03300771,17.2100005 5.25071886,16.9869686 5.29726541,14.5158117 C5.33122612,12.7105617 3.63593321,12.3721271 3.65730806,11.0023774 C3.67565949,9.82788863 4.71402728,8.85762988 5.97591695,8.87523588 Z M20.7622936,10.8648454 C21.498595,12.1806842 21.0783217,13.8733254 19.8235603,14.6455079 C18.0339414,15.74684 16.7673923,14.0048886 14.6507478,15.2984203 C13.1044555,16.243396 13.6414202,17.8494334 12.470292,18.5701647 C11.4661667,19.1880626 10.1394938,18.8394375 9.54128595,17.7702883 C8.94307807,16.7011391 9.2998692,15.3164455 10.3039945,14.6984785 C11.4750568,13.9778163 12.5501715,15.2527013 14.0909322,14.2979188 C16.2000036,12.9908508 15.3676227,10.9816984 17.1573074,9.88036625 C18.412003,9.10818375 20.026058,9.54900669 20.7622936,10.8648454 Z M7.5350091,2.33895155 C9.33120576,3.35180474 8.53370386,5.26378953 10.6506171,6.46596108 C12.197091,7.34420239 13.2470008,6.12238091 14.4223943,6.78512571 C15.4301925,7.35340718 15.8057918,8.65663556 15.2269693,9.67647395 C14.6481468,10.6963776 13.3341058,11.0467471 12.3263076,10.4784657 C11.1509796,9.81572086 11.6607731,8.28929268 10.1089289,7.42045199 C7.98468044,6.23107575 6.75145713,7.89740368 4.9552605,6.88455049 C3.69597118,6.1744761 3.25265262,4.58119894 3.96501427,3.32601824 C4.67737593,2.0707723 6.27571979,1.62881186 7.5350091,2.33895155 Z"/>
  </g>
</svg>
