<svg xmlns="http://www.w3.org/2000/svg" width="24" height="24" viewBox="0 0 24 24">
  <defs>
    <filter id="file-pdf-a">
      <feColorMatrix in="SourceGraphic" values="0 0 0 0 0.000000 0 0 0 0 0.000000 0 0 0 0 0.000000 0 0 0 1.000000 0"/>
    </filter>
  </defs>
  <g fill="none" fill-rule="evenodd" filter="url(#file-pdf-a)">
    <rect width="24" height="24"/>
    <path fill="#000" fill-rule="nonzero" d="M14,2 L20,8 L20,20 C20,21.1 19.1,22 18,22 L18,22 L5.99,22 C4.89,22 4,21.1 4,20 L4,20 L4,4 C4,2.9 4.9,2 6,2 L6,2 L14,2 Z M13,4 L6,4 L6,20 L18,20 L18,9 L13,9 L13,4 Z M8.80397555,14.3636398 C9.6118583,14.3636398 10.1534061,14.875003 10.1534061,15.64915 C10.1534061,16.4321748 9.59765377,16.9204556 8.76846422,16.9204556 L8.76846422,16.9204556 L8.22158974,16.9204556 L8.22158974,18 L7.23437478,18 L7.23437478,14.3636398 L8.80397555,14.3636398 Z M11.9005666,14.3636398 C13.0227247,14.3636398 13.725849,15.0454574 13.725849,16.1818199 C13.725849,17.3181825 13.0227247,18 11.9147712,18 L11.9147712,18 L10.5156248,18 L10.5156248,14.3636398 L11.9005666,14.3636398 Z M16.7372132,14.3636398 L16.7372132,15.1590936 L15.1676125,15.1590936 L15.1676125,15.784093 L16.5809634,15.784093 L16.5809634,16.5795468 L15.1676125,16.5795468 L15.1676125,18 L14.1803975,18 L14.1803975,14.3636398 L16.7372132,14.3636398 Z M11.8508508,15.2017072 L11.5028397,15.2017072 L11.5028397,17.1619326 L11.8792598,17.1619326 C12.4190321,17.1619326 12.7315318,16.9417624 12.7315318,16.1818199 C12.7315318,15.4218775 12.4190321,15.2017072 11.8508508,15.2017072 L11.8508508,15.2017072 Z M8.56960078,15.1519914 L8.22158974,15.1519914 L8.22158974,16.1534109 L8.56960078,16.1534109 C8.91583624,16.1534109 9.12357752,15.9598741 9.12357752,15.64915 C9.12357752,15.3366503 8.91583624,15.1519914 8.56960078,15.1519914 L8.56960078,15.1519914 Z"/>
  </g>
</svg>
