<svg xmlns="http://www.w3.org/2000/svg" width="24" height="24" viewBox="0 0 24 24">
  <g fill="none" fill-rule="evenodd">
    <rect width="24" height="24"/>
    <path fill="#000" fill-rule="nonzero" d="M10,4 L12,6 L20,6 C21.1,6 22,6.89 22,8 L22,8 L22.0008689,12.5285648 C21.4237614,12.0118388 20.7460294,11.6051975 20.0006859,11.3416539 L20,8 L4,8 L4,18 L12.0830939,18.0008069 C12.2036527,18.7188084 12.4517342,19.3935565 12.8032504,20.000963 L4,20 C2.8954305,20 2,19.1045695 2,18 L2,18 L2,6 C2,4.89 2.89,4 4,4 L4,4 L10,4 Z"/>
    <path fill="#4DA0CE" d="M17.5,13 C19.4329966,13 21,14.5670034 21,16.5 C21,19.125 17.5,23 17.5,23 C17.5,23 14,19.125 14,16.5 C14,14.5670034 15.5670034,13 17.5,13 Z M17.5,14 C16.1192881,14 15,15.065264 15,16.3793338 L15.0003645,16.4586826 C15.0069252,16.9615917 15.1315789,17.9749902 17.5,21 C20,17.8069341 20,16.8552005 20,16.3793338 C20,15.065264 18.8807119,14 17.5,14 Z M17.5,15 C18.3284271,15 19,15.6715729 19,16.5 C19,16.8978247 18.8419647,17.2793556 18.5606602,17.5606602 C18.2793556,17.8419647 17.8978247,18 17.5,18 C16.6715729,18 16,17.3284271 16,16.5 C16,16.1021753 16.1580353,15.7206444 16.4393398,15.4393398 C16.7206444,15.1580353 17.1021753,15 17.5,15 Z"/>
  </g>
</svg>
