<svg xmlns="http://www.w3.org/2000/svg" width="24" height="24" viewBox="0 0 24 24">
  <g fill="none" fill-rule="evenodd">
    <rect width="24" height="24"/>
    <path fill="#000" fill-rule="nonzero" d="M10,4 L12,6 L20,6 C21.1,6 22,6.89 22,8 L22,8 L22.0008689,12.5285648 C21.4237614,12.0118388 20.7460294,11.6051975 20.0006859,11.3416539 L20,8 L4,8 L4,18 L12.0830939,18.0008069 C12.2036527,18.7188084 12.4517342,19.3935565 12.8032504,20.000963 L4,20 C2.8954305,20 2,19.1045695 2,18 L2,18 L2,6 C2,4.89 2.89,4 4,4 L4,4 L10,4 Z"/>
    <path fill="#0F23CF" d="M17.995,12 C20.76,12 23,14.24 23,17 C23,19.76 20.76,22 17.995,22 C15.235,22 13,19.76 13,17 C13,14.24 15.235,12 17.995,12 Z M18.955,19 L17.045,19 C17.26,19.715 17.585,20.38 18,20.98 C18.415,20.38 18.74,19.715 18.955,19 Z M16.015,19 L14.54,19 C15.02,19.83 15.785,20.465 16.705,20.78 C16.405,20.225 16.175,19.625 16.015,19 Z M21.46,19 L19.985,19 C19.825,19.625 19.595,20.225 19.295,20.78 C20.215,20.465 20.98,19.825 21.46,19 Z M15.82,16 L14.13,16 C14.05,16.32 14,16.655 14,17 C14,17.25875 14.028125,17.511875 14.0759375,17.7572656 L14.13,18 L15.82,18 C15.78,17.67 15.75,17.34 15.75,17 C15.75,16.66 15.78,16.33 15.82,16 Z M19.17,16 L16.83,16 C16.785,16.325 16.75,16.66 16.75,17 C16.75,17.2266667 16.7655556,17.4488889 16.7892593,17.6696296 L16.83,18 L19.17,18 C19.215,17.67 19.25,17.34 19.25,17 C19.25,16.66 19.215,16.325 19.17,16 Z M21.87,16 L20.18,16 C20.22,16.33 20.25,16.66 20.25,17 C20.25,17.2266667 20.2366667,17.4488889 20.2159259,17.6696296 L20.18,18 L21.87,18 C21.95,17.68 22,17.345 22,17 C22,16.655 21.95,16.32 21.87,16 Z M19.295,13.22 C19.535,13.664 19.7302,14.1368 19.8806,14.62816 L19.985,15 L21.46,15 C20.98,14.175 20.215,13.535 19.295,13.22 Z M16.705,13.22 C15.8616667,13.50875 15.1485764,14.0663889 14.6658623,14.7966348 L14.54,15 L16.015,15 C16.175,14.375 16.405,13.775 16.705,13.22 Z M18,13.02 C17.6442857,13.5342857 17.3546939,14.0963265 17.1438192,14.6966764 L17.045,15 L18.955,15 C18.74,14.285 18.415,13.62 18,13.02 Z"/>
  </g>
</svg>
