<svg xmlns="http://www.w3.org/2000/svg" width="24" height="24" viewBox="0 0 24 24">
  <defs>
    <filter id="folder-empty-a">
      <feColorMatrix in="SourceGraphic" values="0 0 0 0 0.000000 0 0 0 0 0.000000 0 0 0 0 0.000000 0 0 0 1.000000 0"/>
    </filter>
  </defs>
  <g fill="none" fill-rule="evenodd" filter="url(#folder-empty-a)">
    <rect width="24" height="24"/>
    <path fill="#000" fill-rule="nonzero" d="M5.56132075,10 L3.48113208,18 L3.48113208,8 L20.3207547,8 C20.3207547,6.8954305 19.4337717,6 18.3396226,6 L11.4056604,6 L9.4245283,4 L3.48113208,4 C2.38698304,4 1.5,4.8954305 1.5,6 L1.5,18 C1.5,19.1045695 2.38698304,20 3.48113208,20 L18.3396226,20 C19.2311321,20 20.0235849,19.4 20.2216981,18.5 L22.5,10 L5.56132075,10 M18.3396226,18 L5.46226415,18 L7.04716981,12 L19.9245283,12 L18.3396226,18 Z"/>
  </g>
</svg>
