<svg xmlns="http://www.w3.org/2000/svg" width="24" height="24" viewBox="0 0 24 24">
  <g fill="none" fill-rule="evenodd">
    <rect width="24" height="24"/>
    <path fill="#000" fill-rule="nonzero" d="M9.4245283,4 L11.4056604,6 L18.3396226,6 C19.4337717,6 20.3207547,6.8954305 20.3207547,8 L20.3207547,8 L3.48113208,8 L3.48113208,18 L5.56132075,10 L22.5,10 L21.8568174,12.403629 C20.8139197,11.5276148 19.4685754,11 18,11 C16.7733738,11 15.6327187,11.3680857 14.6824642,11.9998276 L7.04716981,12 L5.46226415,18 L12.0830939,18.0008069 C12.2036527,18.7188084 12.4517342,19.3935565 12.8032504,20.000963 L3.48113208,20 C2.38698304,20 1.5,19.1045695 1.5,18 L1.5,18 L1.5,6 C1.5,4.8954305 2.38698304,4 3.48113208,4 L3.48113208,4 L9.4245283,4 Z"/>
    <path fill="#4DA0CE" d="M18,12.5 C19.9329966,12.5 21.5,14.0670034 21.5,16 C21.5,18.625 18,22.5 18,22.5 C18,22.5 14.5,18.625 14.5,16 C14.5,14.0670034 16.0670034,12.5 18,12.5 Z M18,13.5 C16.6192881,13.5 15.5,14.565264 15.5,15.8793338 L15.5003645,15.9586826 C15.5069252,16.4615917 15.6315789,17.4749902 18,20.5 C20.5,17.3069341 20.5,16.3552005 20.5,15.8793338 C20.5,14.565264 19.3807119,13.5 18,13.5 Z M18,14.5 C18.8284271,14.5 19.5,15.1715729 19.5,16 C19.5,16.3978247 19.3419647,16.7793556 19.0606602,17.0606602 C18.7793556,17.3419647 18.3978247,17.5 18,17.5 C17.1715729,17.5 16.5,16.8284271 16.5,16 C16.5,15.6021753 16.6580353,15.2206444 16.9393398,14.9393398 C17.2206444,14.6580353 17.6021753,14.5 18,14.5 Z"/>
  </g>
</svg>
